<svg xmlns="http://www.w3.org/2000/svg" viewBox="0 0 319.17 60.99"><defs><style>.cls-1{fill:#77e0c1;}.cls-2{fill:#00ade9;}.cls-3{fill:#003da6;}.cls-4{fill:#444;}</style></defs><title>Recurso 1</title><g id="Capa_2" data-name="Capa 2"><g id="Capa_1-2" data-name="Capa 1"><path class="cls-1" d="M29.11.48,52,13.47s2.74,1.57.14,2.74L27,30.5.82,15.28a7.13,7.13,0,0,1,2.52-2.16L25.31.48A4,4,0,0,1,29.11.48Z"/><path class="cls-2" d="M29.11,60.51,52,47.53s2.75-1.57.14-2.74L27,30.5.82,45.72a7.17,7.17,0,0,0,2.52,2.16l22,12.64A4,4,0,0,0,29.11,60.51Z"/><path class="cls-3" d="M.69,15.23,27,30.49.69,45.76A1.78,1.78,0,0,1,0,44.59L.09,16.41S.22,15.36.69,15.23Z"/><path class="cls-4" d="M84.71,14.87c7,0,11.42,3.11,13.38,6l-6.76,6.28A7.13,7.13,0,0,0,85.18,24c-4.32,0-7.63,3-7.63,7.9s3.31,8,7.63,8a7.34,7.34,0,0,0,6.15-3.17l6.76,6.35c-2,2.84-6.35,6-13.38,6-10.2,0-17.83-6.89-17.83-17.16S74.51,14.87,84.71,14.87Z"/><path class="cls-4" d="M102.81,3.25h10.4V48.31h-10.4Z"/><path class="cls-4" d="M120,6.76a5.94,5.94,0,1,1,5.94,5.95A5.94,5.94,0,0,1,120,6.76Zm.74,8.92h10.4V48.31h-10.4Z"/><path class="cls-4" d="M154.42,14.87c7,0,11.42,3.11,13.37,6L161,27.16a7.13,7.13,0,0,0-6.15-3.11c-4.32,0-7.63,3-7.63,7.9s3.31,8,7.63,8A7.34,7.34,0,0,0,161,36.76l6.76,6.35c-2,2.84-6.35,6-13.37,6-10.2,0-17.83-6.89-17.83-17.16S144.22,14.87,154.42,14.87Z"/><path class="cls-4" d="M194.68,29.33c0-4-2.09-5.27-5.4-5.27A8,8,0,0,0,183,27.23V48.31H172.6V3.25H183V19.67a14.75,14.75,0,0,1,11.28-4.8c7.43,0,10.81,4.19,10.81,10.2V48.31h-10.4Z"/><path class="cls-4" d="M227.84,14.87c9.66,0,16.69,7.09,16.69,18.17v2.23H221.29c.61,3,3.45,5.81,8.31,5.81a12.92,12.92,0,0,0,8-2.77l4.4,6.48c-3.24,2.91-8.65,4.32-13.64,4.32-10.06,0-17.83-6.55-17.83-17.16C210.48,22.5,217.64,14.87,227.84,14.87Zm-6.69,13.65H234.6c-.27-2.3-2-5.61-6.75-5.61a6.45,6.45,0,0,0-6.69,5.6Z"/><path class="cls-4" d="M268.91,45.07c-2,2.43-6,4-10.13,4-5,0-11.21-3.38-11.21-10.74,0-7.9,6.21-10.27,11.21-10.27,4.32,0,8.17,1.35,10.13,3.78V27.77c0-2.84-2.43-4.73-6.62-4.73A14.56,14.56,0,0,0,253,26.49l-3.71-6.55a23,23,0,0,1,14.79-5.07c7.84,0,15.2,2.9,15.2,13v20.4h-10.4Zm0-8c-1.08-1.49-3.51-2.3-5.81-2.3-2.77,0-5.2,1.22-5.2,3.78s2.43,3.78,5.2,3.78c2.3,0,4.73-.81,5.81-2.36Z"/><path class="cls-4" d="M308.83,44.52a12.46,12.46,0,0,1-9.66,4.59c-8,0-14.46-6.08-14.46-17.16,0-10.67,6.28-17.09,14.46-17.09a12.11,12.11,0,0,1,9.66,4.66V3.25h10.34V48.31H308.83Zm0-17.56a8.5,8.5,0,0,0-6.28-2.9c-4.12,0-7.16,3-7.16,7.9s3,8,7.16,8a8.57,8.57,0,0,0,6.28-3Z"/></g></g></svg>