<?xml version="1.0" ?><!DOCTYPE svg  PUBLIC '-//W3C//DTD SVG 1.1//EN'  'http://www.w3.org/Graphics/SVG/1.1/DTD/svg11.dtd'><svg enable-background="new 0 0 50 50" id="Layer_1" version="1.1" viewBox="0 0 50 50" xml:space="preserve" xmlns="http://www.w3.org/2000/svg" xmlns:xlink="http://www.w3.org/1999/xlink"><g id="W_2_"><path d="M10,25c0,5.9,3.5,11.1,8.5,13.5l-7.2-19.6C10.5,20.8,10,22.8,10,25z" fill="#12A5D7"/><path d="M35.1,24.2c0-1.9-0.7-3.1-1.2-4.1c-0.8-1.2-1.5-2.3-1.5-3.5c0-1.4,1-2.7,2.5-2.7c0.1,0,0.1,0,0.2,0   C32.5,11.5,28.9,10,25,10c-5.2,0-9.9,2.7-12.5,6.8c0.4,0,0.7,0,1,0c1.6,0,4-0.2,4-0.2c0.8,0,0.9,1.1,0.1,1.2c0,0-0.8,0.1-1.7,0.1   l5.5,16.2l3.3-9.8L22.2,18c-0.8,0-1.6-0.1-1.6-0.1c-0.8,0-0.7-1.3,0.1-1.2c0,0,2.5,0.2,4,0.2c1.6,0,4-0.2,4-0.2   c0.8,0,0.9,1.1,0.1,1.2c0,0-0.8,0.1-1.7,0.1l5.4,16.1l1.5-5C34.6,27,35.1,25.5,35.1,24.2z" fill="#12A5D7"/><path d="M25.3,26.3l-4.5,13.1c1.3,0.4,2.8,0.6,4.2,0.6c1.7,0,3.4-0.3,5-0.9c0-0.1-0.1-0.1-0.1-0.2L25.3,26.3z" fill="#12A5D7"/><path d="M38.2,17.8c0.1,0.5,0.1,1,0.1,1.5c0,1.5-0.3,3.2-1.1,5.4L32.5,38C37,35.4,40,30.5,40,25   C40,22.4,39.3,19.9,38.2,17.8z" fill="#12A5D7"/></g><path d="M25,1C11.7,1,1,11.7,1,25s10.7,24,24,24s24-10.7,24-24S38.3,1,25,1z M25,44C14.5,44,6,35.5,6,25S14.5,6,25,6  s19,8.5,19,19S35.5,44,25,44z" fill="#12A5D7"/></svg>